<svg version="1.1" id="Layer_1" xmlns="http://www.w3.org/2000/svg" xmlns:xlink="http://www.w3.org/1999/xlink" x="0px" y="0px"
	 width="100%" viewBox="0 0 1498 258" enable-background="new 0 0 1498 258" xml:space="preserve">
<path fill="#FEFEFE" opacity="1.000000" stroke="none" 
	d="
M1.000002,206.000000 
	C1.000000,199.975876 1.000000,193.951767 1.329360,187.354279 
	C10.939003,171.445831 20.264666,156.137619 29.402523,140.718124 
	C30.045473,139.633179 29.728979,137.527939 29.128641,136.236481 
	C26.590815,130.777054 26.383116,125.504387 28.790161,119.876320 
	C29.528948,118.148918 29.247911,115.407570 28.367222,113.671669 
	C25.513607,108.046982 21.850054,102.828171 19.070896,97.171776 
	C12.863592,84.538094 7.002271,71.734421 1.000000,59.000000 
	C1.000000,39.752369 1.000000,20.504734 1.000000,1.000000 
	C13.689588,1.000000 26.380909,1.000000 39.558266,1.310061 
	C40.076553,1.824833 40.108803,2.029543 39.793720,2.379344 
	C21.520535,6.682178 9.094926,17.102112 3.248358,34.743614 
	C2.531543,36.906548 2.533203,39.702648 3.227928,41.877594 
	C10.702792,65.278778 20.993202,87.395592 33.858967,108.336395 
	C35.600117,111.170364 37.025669,112.223785 40.542767,111.213547 
	C43.246243,110.436989 46.584663,110.788071 49.352512,111.609200 
	C52.397232,112.512459 54.186607,111.823936 56.363594,109.721352 
	C85.213982,81.856956 118.974228,64.557465 159.522049,61.526581 
	C161.930954,61.346519 164.352158,57.664474 166.148727,55.166847 
	C166.696228,54.405712 165.495544,51.910404 164.541855,50.617798 
	C150.797409,31.989418 134.092545,16.296919 116.010300,1.747340 
	C116.018890,1.498206 116.000000,1.000000 116.000000,1.000000 
	C120.025894,1.000000 124.051788,1.000000 128.540314,1.266850 
	C129.017044,1.711043 129.031143,1.888386 129.123566,2.389673 
	C136.927505,9.991850 144.972687,16.965399 152.286652,24.636126 
	C159.255920,31.945335 165.302353,40.128609 172.133835,47.579807 
	C173.569321,49.145531 176.629944,49.580372 178.998413,49.751553 
	C179.921478,49.818264 181.669495,47.845024 181.907440,46.586506 
	C184.706482,31.782148 187.289902,16.937029 189.957916,1.827642 
	C189.990479,1.368422 189.995239,1.184211 190.000000,1.000000 
	C192.370743,1.000000 194.741470,1.000000 197.557861,1.268338 
	C198.016708,1.715083 198.029922,1.893490 197.869537,2.434148 
	C195.301788,15.879126 193.097061,29.000711 190.424194,42.026237 
	C189.289642,47.555264 187.072632,52.866356 192.953201,57.117466 
	C193.679672,57.642624 193.737869,59.049980 194.443237,59.655201 
	C195.951141,60.949043 197.526840,62.526016 199.343002,63.040913 
	C213.239029,66.980537 227.259537,70.489204 241.111221,74.573158 
	C246.875793,76.272743 252.323166,79.048172 257.695221,81.244629 
	C257.695221,67.267914 257.891266,53.841232 257.557404,40.427734 
	C257.473907,37.071968 256.015350,33.613434 254.624298,30.450359 
	C247.727020,14.766801 235.345490,5.871821 218.940018,1.881027 
	C218.984192,1.392458 218.992096,1.196229 219.000000,1.000000 
	C645.602051,1.000000 1072.204102,1.000000 1498.903076,1.000000 
	C1498.903076,86.922256 1498.903076,172.844650 1498.903076,259.000000 
	C1073.642578,259.000000 648.285217,259.000000 222.703156,258.724548 
	C240.495529,253.412979 252.914185,242.067154 256.783447,223.815414 
	C259.053802,213.106049 257.978821,201.686768 258.373535,190.585571 
	C258.381531,190.361069 257.958832,190.121246 257.647797,189.794922 
	C249.087906,192.262070 240.460754,194.632019 231.939072,197.334564 
	C230.707779,197.725052 229.520767,199.576965 229.106201,200.985901 
	C227.541275,206.304382 224.257950,209.898788 219.389526,212.418060 
	C217.998337,213.137970 216.439667,214.798798 216.180969,216.246704 
	C213.639435,230.471375 211.356415,244.742249 209.000000,259.000000 
	C206.629257,259.000000 204.258530,259.000000 201.509476,258.612427 
	C203.466736,245.831268 205.757950,233.429077 208.161011,221.048584 
	C209.049042,216.473633 209.005081,212.657257 203.501144,210.911713 
	C201.931030,210.413773 200.441910,208.782410 199.522614,207.295486 
	C197.681641,204.317871 195.237473,203.750153 191.952194,203.900864 
	C174.299789,204.710754 156.722763,204.385101 139.418625,200.038986 
	C137.854950,199.646255 135.330994,200.366760 134.180832,201.506561 
	C129.178772,206.463562 123.609848,208.560028 116.544456,207.102386 
	C114.885071,206.760025 112.191559,207.710464 111.076103,209.011353 
	C95.332962,227.371414 78.026772,244.074570 59.000000,259.000000 
	C54.974106,259.000000 50.948212,259.000000 46.701866,258.770630 
	C68.107635,243.542938 86.748604,225.325653 103.934242,205.504883 
	C106.413193,202.645828 107.282433,200.169434 105.190857,196.734665 
	C104.291489,195.257751 103.745163,193.181320 103.954918,191.490982 
	C104.439850,187.583191 102.315956,185.861679 99.337837,184.226456 
	C83.741547,175.662888 70.046265,164.617432 57.890224,151.687363 
	C53.805038,147.342056 50.360485,144.323425 43.169727,144.291962 
	C36.602409,144.263245 34.073559,146.738098 31.282299,151.059235 
	C30.108603,152.876251 28.760246,154.595108 27.732742,156.489563 
	C18.790703,172.976166 9.903502,189.492493 1.000002,206.000000 
M132.987885,165.471710 
	C148.163162,141.103424 160.199295,115.246140 169.852402,88.233727 
	C171.106964,84.723030 171.452362,82.347839 167.837143,79.832016 
	C165.576721,78.258980 163.831314,75.249962 162.976044,72.532425 
	C161.940948,69.243469 160.080917,69.019165 157.370163,69.281097 
	C119.747086,72.916481 88.067902,88.966118 61.190727,115.151634 
	C59.107681,117.181091 58.659107,118.945198 59.808475,121.716881 
	C61.894787,126.747978 61.214874,131.691528 58.709591,136.603424 
	C57.972908,138.047775 58.029209,140.970459 59.007996,142.053513 
	C72.026520,156.458954 86.782547,168.768524 103.819252,178.242157 
	C105.937561,179.420120 107.457130,179.771851 109.449707,177.817474 
	C113.511292,173.833710 118.525673,172.784180 124.181992,173.422516 
	C125.807503,173.605957 127.933502,172.274734 129.298111,171.046875 
	C130.727203,169.760971 131.516525,167.764084 132.987885,165.471710 
M714.247009,199.880234 
	C720.085693,185.630310 725.924377,171.380386 732.213440,156.031281 
	C737.972778,169.830200 743.160583,182.352142 748.423767,194.842300 
	C753.127197,206.003906 753.169312,206.081970 765.392761,205.377197 
	C766.847900,205.293304 768.917969,203.823761 769.502869,202.475754 
	C781.701233,174.364639 793.740295,146.184280 805.774231,118.001984 
	C808.356995,111.953392 810.797546,105.844124 813.549561,99.165985 
	C808.002563,99.165985 803.201416,99.411766 798.441467,99.075134 
	C795.518555,98.868423 794.404297,100.115211 793.427002,102.515640 
	C786.178650,120.317787 778.840393,138.083374 771.520752,155.856491 
	C767.637939,165.284729 763.735962,174.705109 759.441589,185.099747 
	C754.987061,173.961273 751.600708,163.520752 746.689087,153.855316 
	C742.960327,146.517685 743.547546,140.492081 746.876770,133.393784 
	C751.981812,122.509193 756.128662,111.175194 760.899902,99.499054 
	C756.040100,99.499054 751.906616,99.624153 747.785339,99.453186 
	C745.221558,99.346832 744.103821,100.205505 743.194702,102.744286 
	C739.876587,112.010742 736.168701,121.137634 732.218018,131.321777 
	C728.358948,121.305748 724.930298,112.263512 721.355652,103.279373 
	C720.802002,101.887886 719.657532,99.762100 718.653137,99.683861 
	C713.810181,99.306549 708.921631,99.514008 703.536072,99.514008 
	C708.338623,111.101204 712.614929,121.852898 717.251892,132.446701 
	C720.123352,139.007019 722.624207,144.869568 718.750366,152.419159 
	C713.545837,162.562149 709.893860,173.501770 705.337524,184.683167 
	C704.703430,183.471558 704.364319,182.929443 704.122864,182.346848 
	C695.384644,161.261505 686.647522,140.175674 677.930176,119.081703 
	C675.530273,113.274513 674.144958,106.758026 670.582275,101.796051 
	C666.286621,95.813110 658.893433,100.448967 653.015320,99.200661 
	C652.733032,99.140694 652.395264,99.341560 651.583557,99.548203 
	C652.080383,101.103340 652.447876,102.675659 653.070251,104.139572 
	C666.019775,134.596573 679.063354,165.013779 691.933716,195.504135 
	C696.119202,205.419739 695.923096,205.333511 706.506287,205.588806 
	C710.498901,205.685150 713.296387,204.991608 714.247009,199.880234 
M1425.990112,98.081665 
	C1416.587891,99.801010 1408.409668,103.928909 1401.517334,110.561478 
	C1380.295654,130.983444 1379.289551,169.828613 1399.417358,191.341522 
	C1419.143433,212.424896 1450.425537,212.886551 1469.300659,192.375992 
	C1470.318237,191.270294 1471.363159,190.189758 1473.037964,188.417542 
	C1473.037964,191.178772 1472.911865,192.851364 1473.059570,194.499435 
	C1473.757690,202.290466 1480.238403,206.507919 1490.356201,206.153320 
	C1499.230469,205.842300 1494.031006,199.168503 1495.306274,195.457504 
	C1495.715576,194.266068 1495.489380,192.796951 1495.318115,191.485687 
	C1495.200195,190.584045 1494.858765,189.124527 1494.304443,188.958450 
	C1489.158813,187.416565 1490.011108,183.255432 1490.009277,179.508545 
	C1489.990234,141.010849 1489.997559,102.513145 1489.997559,64.015442 
	C1489.997559,62.078518 1489.997681,60.141594 1489.997681,58.187748 
	C1483.255859,58.187748 1477.174438,58.187748 1470.628906,58.187748 
	C1470.628906,68.307213 1470.628784,78.104279 1470.628784,87.901337 
	C1470.628784,97.615547 1470.628906,107.329758 1470.628906,118.332092 
	C1458.781616,103.554222 1445.025024,95.828758 1425.990112,98.081665 
M1003.258240,184.137665 
	C1018.360229,205.888184 1041.594116,213.331345 1064.444092,202.801300 
	C1071.091919,199.737671 1076.580444,194.158371 1082.304565,189.949799 
	C1083.267090,203.917068 1090.545654,209.074310 1104.823853,205.060272 
	C1104.823853,199.813858 1104.823853,194.516434 1104.823853,189.012360 
	C1099.048584,188.508179 1099.496216,184.178207 1099.495605,180.138000 
	C1099.489746,141.318253 1099.492065,102.498512 1099.492065,63.678764 
	C1099.492065,61.887623 1099.492065,60.096481 1099.492065,58.071686 
	C1092.866699,58.071686 1086.631592,58.071686 1080.000488,58.071686 
	C1080.000488,68.036354 1080.000366,77.827148 1080.000366,87.617935 
	C1080.000366,97.356796 1080.000488,107.095665 1080.000488,118.039291 
	C1078.706055,116.506912 1078.216187,115.956253 1077.758057,115.380409 
	C1060.010620,93.074478 1029.692383,91.477463 1009.829407,111.905609 
	C991.821899,130.425400 989.605713,162.638779 1003.258240,184.137665 
M1125.163818,172.499924 
	C1125.163818,183.414520 1125.163818,194.329117 1125.163818,205.208466 
	C1131.912842,205.208466 1137.997681,205.208466 1144.504272,205.208466 
	C1144.504272,195.457092 1144.438965,185.994308 1144.564697,176.534042 
	C1144.587158,174.836121 1144.864258,172.612778 1145.934692,171.545898 
	C1151.624512,165.875122 1157.604370,160.495514 1163.563721,154.940689 
	C1174.940186,171.039688 1186.058594,186.803513 1197.234497,202.526550 
	C1198.044434,203.665970 1199.237061,205.310074 1200.311157,205.356781 
	C1206.532349,205.627365 1212.771240,205.488983 1220.276611,205.488983 
	C1205.058716,184.151215 1190.715820,164.040329 1176.252075,143.760086 
	C1190.154541,129.243927 1203.836426,114.958069 1217.518311,100.672211 
	C1211.863647,99.495842 1206.911255,99.713097 1201.988892,99.422005 
	C1198.515747,99.216606 1196.144287,100.410294 1193.741211,102.862045 
	C1178.815674,118.090202 1163.738159,133.169571 1148.697266,148.284576 
	C1147.612671,149.374496 1146.418579,150.355392 1144.457886,152.124603 
	C1144.457886,120.041931 1144.457886,89.127419 1144.457886,58.203751 
	C1137.794189,58.203751 1131.583618,58.203751 1125.451294,58.203751 
	C1125.311890,58.892586 1125.192139,59.208614 1125.191895,59.524704 
	C1125.176880,96.849770 1125.170532,134.174835 1125.163818,172.499924 
M213.727997,73.732018 
	C209.985046,72.955505 206.271042,71.923111 202.488663,71.495148 
	C200.088501,71.223587 196.303238,70.950760 195.387466,72.255974 
	C193.231934,75.328178 190.995956,78.464668 193.465195,83.411392 
	C207.680176,111.888687 215.580261,142.146347 216.947311,173.992920 
	C217.111130,177.809387 217.598236,180.504730 221.533691,182.218735 
	C223.654236,183.142288 225.512833,185.305115 226.798630,187.344467 
	C228.370270,189.837189 230.030182,190.216095 232.614792,189.360580 
	C239.710602,187.011765 246.797211,184.597900 254.003128,182.634186 
	C257.781921,181.604401 258.816864,179.704819 258.794861,175.921326 
	C258.638733,149.107025 258.618225,122.290695 258.812805,95.476883 
	C258.841919,91.468414 257.515289,89.249718 253.921173,87.976509 
	C240.781067,83.321678 227.656387,78.623238 213.727997,73.732018 
M888.735535,103.702316 
	C864.700989,92.009789 842.778259,98.235626 821.312439,111.569466 
	C823.522705,115.958389 825.638977,120.160545 827.861511,124.573761 
	C837.143188,118.437141 846.335510,113.610382 856.964233,112.349136 
	C879.208252,109.709579 891.373535,124.709167 887.296326,145.506897 
	C885.873108,145.080475 884.481079,144.618881 883.065613,144.246109 
	C867.836914,140.235733 852.630798,139.333908 837.590698,145.008728 
	C826.064819,149.357605 817.441833,156.638702 815.457703,169.487656 
	C812.181580,190.703629 830.029480,208.908783 852.189575,207.515427 
	C867.097046,206.578079 880.243164,201.949814 890.468567,190.135605 
	C892.536255,204.649078 899.102112,208.922775 912.944092,205.048523 
	C912.944092,199.832092 912.944092,194.549362 912.944092,189.042435 
	C907.506042,188.327698 907.507202,184.201218 907.504639,180.095993 
	C907.496887,167.607971 907.524048,155.119888 907.496033,142.631927 
	C907.460815,126.965530 903.558228,113.101044 888.735535,103.702316 
M484.777466,193.774460 
	C486.606262,195.196762 488.416962,196.643051 490.266602,198.037689 
	C510.550049,213.331650 544.375671,209.410431 560.831177,190.135101 
	C583.169678,163.968628 577.979980,122.977455 547.732117,104.670883 
	C527.694031,92.543503 497.585480,96.745964 482.097626,114.363129 
	C461.839478,137.406311 462.781250,171.645401 484.777466,193.774460 
M176.530075,91.978394 
	C166.063217,121.376450 152.600998,149.306442 135.676086,175.551636 
	C134.946838,176.682480 134.216736,178.360306 134.520920,179.509705 
	C135.523071,183.296448 136.856995,187.018723 138.394775,190.624451 
	C138.792694,191.557465 140.322876,192.297363 141.467453,192.578506 
	C157.758270,196.580200 174.320496,197.411789 191.010254,196.639084 
	C193.745926,196.512421 195.441116,195.691696 196.169983,192.514664 
	C197.464890,186.870148 201.004791,182.661713 206.601898,180.695404 
	C209.532700,179.665802 210.343567,177.867279 210.003845,175.011398 
	C208.983475,166.433350 208.302582,157.807571 207.036896,149.267471 
	C203.746231,127.064178 196.642899,106.031387 186.666656,85.976402 
	C186.065781,84.768478 183.607101,83.847610 182.034943,83.879555 
	C177.339615,83.974945 178.233856,88.536400 176.530075,91.978394 
M1348.153564,140.646500 
	C1348.153564,162.208725 1348.153564,183.770935 1348.153564,205.141266 
	C1355.424805,205.141266 1361.516235,205.141266 1367.606079,205.141266 
	C1367.606079,181.930771 1367.680664,159.115829 1367.537231,136.302277 
	C1367.511353,132.179916 1366.875854,128.003021 1366.026855,123.955093 
	C1363.370605,111.290016 1357.295044,101.212631 1343.615479,98.451836 
	C1331.459595,95.998482 1319.736694,98.323471 1309.271484,104.850906 
	C1303.494995,108.453850 1298.545898,113.383545 1292.968506,117.922989 
	C1292.968506,111.820061 1292.968506,105.617218 1292.968506,99.462120 
	C1286.908447,99.462120 1281.342163,99.462120 1275.745117,99.462120 
	C1275.745117,134.861923 1275.745117,169.946747 1275.745117,205.102707 
	C1282.232666,205.102707 1288.428223,205.102707 1294.852173,205.102707 
	C1294.852173,186.846664 1295.442627,168.998474 1294.667358,151.209839 
	C1294.034668,136.693604 1300.999390,127.316116 1312.240723,120.052467 
	C1321.968384,113.766953 1333.574829,113.385963 1340.264526,118.963737 
	C1346.731201,124.355736 1347.543945,132.008240 1348.153564,140.646500 
M951.507263,161.500351 
	C951.507263,157.170761 951.743591,152.825775 951.462830,148.514481 
	C950.624695,135.644608 957.478149,127.396057 968.095581,122.165588 
	C974.486633,119.017166 981.684326,117.506195 988.977661,115.108795 
	C988.977661,110.393822 988.977661,104.780373 988.977661,99.199188 
	C976.914124,96.445587 965.100281,102.648758 950.492798,119.723007 
	C950.492798,112.465569 950.492798,105.948769 950.492798,99.472122 
	C944.079468,99.472122 938.332397,99.472122 932.526001,99.472122 
	C932.526001,134.949829 932.526001,170.116135 932.526001,205.187653 
	C938.975403,205.187653 945.056091,205.187653 951.507202,205.187653 
	C951.507202,190.747742 951.507202,176.624039 951.507263,161.500351 
M452.173553,131.558899 
	C452.173553,129.489517 452.173553,127.420143 452.173553,125.479889 
	C423.860321,125.479889 396.319946,125.479889 368.749451,125.479889 
	C368.749451,152.200470 368.749451,178.601761 368.749451,205.254837 
	C375.248657,205.254837 381.491394,205.254837 388.161621,205.254837 
	C388.161621,184.139801 388.161621,163.232788 388.161621,141.858521 
	C409.633514,141.858521 430.686157,141.858521 452.173553,141.858521 
	C452.173553,138.438461 452.173553,135.484711 452.173553,131.558899 
M592.831177,106.569412 
	C592.831177,139.474579 592.831177,172.379745 592.831177,205.255524 
	C599.509460,205.255524 605.589905,205.255524 612.000977,205.255524 
	C612.000977,186.231689 612.402771,167.434250 611.862061,148.663971 
	C611.491028,135.784042 617.810913,127.428749 628.321960,122.112114 
	C634.809265,118.830757 642.262085,117.458260 649.556580,115.141373 
	C649.556580,110.285614 649.556580,104.700684 649.556580,98.753387 
	C632.037354,97.502823 620.587036,106.727303 610.517761,120.852562 
	C610.517761,112.811211 610.517761,106.075996 610.517761,99.427254 
	C604.378845,99.427254 598.778076,99.427254 592.831177,99.427254 
	C592.831177,101.653290 592.831177,103.621193 592.831177,106.569412 
M421.500061,61.834400 
	C403.893860,61.834400 386.287659,61.834400 368.779144,61.834400 
	C368.779144,77.731987 368.779144,93.011177 368.779144,108.558380 
	C375.281189,108.558380 381.515381,108.558380 388.235901,108.558380 
	C388.235901,98.791908 388.235901,89.217674 388.235901,79.136475 
	C413.767334,79.136475 438.820038,79.136475 463.812897,79.136475 
	C463.812897,73.060966 463.812897,67.511307 463.812897,61.834396 
	C449.807098,61.834396 436.153595,61.834396 421.500061,61.834400 
M1231.141602,181.499939 
	C1231.141602,189.415024 1231.141602,197.330093 1231.141602,205.275909 
	C1237.854492,205.275909 1243.937744,205.275909 1250.195557,205.275909 
	C1250.195557,169.826630 1250.195557,134.643723 1250.195557,99.438492 
	C1243.765747,99.438492 1237.686523,99.438492 1231.141602,99.438492 
	C1231.141602,126.654968 1231.141602,153.577454 1231.141602,181.499939 
M1250.535156,61.786964 
	C1249.791748,60.464352 1249.114746,58.045601 1248.294189,57.995922 
	C1242.713013,57.657970 1237.101685,57.819118 1231.511475,57.819118 
	C1231.511475,65.926147 1231.511475,73.466240 1231.511475,80.915077 
	C1237.976929,80.915077 1244.072998,80.915077 1250.535156,80.915077 
	C1250.535156,74.675209 1250.535156,68.703636 1250.535156,61.786964 
z"/>
<path fill="#6FB65C" opacity="1.000000" stroke="none" 
	d="
M1.000002,206.467941 
	C9.903502,189.492493 18.790703,172.976166 27.732742,156.489563 
	C28.760246,154.595108 30.108603,152.876251 31.282299,151.059235 
	C34.073559,146.738098 36.602409,144.263245 43.169727,144.291962 
	C50.360485,144.323425 53.805038,147.342056 57.890224,151.687363 
	C70.046265,164.617432 83.741547,175.662888 99.337837,184.226456 
	C102.315956,185.861679 104.439850,187.583191 103.954918,191.490982 
	C103.745163,193.181320 104.291489,195.257751 105.190857,196.734665 
	C107.282433,200.169434 106.413193,202.645828 103.934242,205.504883 
	C86.748604,225.325653 68.107635,243.542938 46.240707,258.770630 
	C42.307091,259.000000 38.614182,259.000000 34.338493,258.670410 
	C32.895897,257.862030 32.070377,257.303619 31.171137,256.916443 
	C17.163136,250.884979 7.502407,240.830261 2.633301,226.276718 
	C2.350152,225.430389 1.556226,224.754959 0.999999,224.000000 
	C1.000000,218.311966 1.000000,212.623917 1.000002,206.467941 
z"/>
<path fill="#6EB65C" opacity="1.000000" stroke="none" 
	d="
M59.468658,259.000000 
	C78.026772,244.074570 95.332962,227.371414 111.076103,209.011353 
	C112.191559,207.710464 114.885071,206.760025 116.544456,207.102386 
	C123.609848,208.560028 129.178772,206.463562 134.180832,201.506561 
	C135.330994,200.366760 137.854950,199.646255 139.418625,200.038986 
	C156.722763,204.385101 174.299789,204.710754 191.952194,203.900864 
	C195.237473,203.750153 197.681641,204.317871 199.522614,207.295486 
	C200.441910,208.782410 201.931030,210.413773 203.501144,210.911713 
	C209.005081,212.657257 209.049042,216.473633 208.161011,221.048584 
	C205.757950,233.429077 203.466736,245.831268 201.065582,258.612427 
	C153.979111,259.000000 106.958214,259.000000 59.468658,259.000000 
z"/>
<path fill="#71B75E" opacity="1.000000" stroke="none" 
	d="
M209.463181,259.000000 
	C211.356415,244.742249 213.639435,230.471375 216.180969,216.246704 
	C216.439667,214.798798 217.998337,213.137970 219.389526,212.418060 
	C224.257950,209.898788 227.541275,206.304382 229.106201,200.985901 
	C229.520767,199.576965 230.707779,197.725052 231.939072,197.334564 
	C240.460754,194.632019 249.087906,192.262070 257.647797,189.794922 
	C257.958832,190.121246 258.381531,190.361069 258.373535,190.585571 
	C257.978821,201.686768 259.053802,213.106049 256.783447,223.815414 
	C252.914185,242.067154 240.495529,253.412979 222.239258,258.724548 
	C217.975449,259.000000 213.950912,259.000000 209.463181,259.000000 
z"/>
<path fill="#70B65D" opacity="1.000000" stroke="none" 
	d="
M1.000000,59.468658 
	C7.002271,71.734421 12.863592,84.538094 19.070896,97.171776 
	C21.850054,102.828171 25.513607,108.046982 28.367222,113.671669 
	C29.247911,115.407570 29.528948,118.148918 28.790161,119.876320 
	C26.383116,125.504387 26.590815,130.777054 29.128641,136.236481 
	C29.728979,137.527939 30.045473,139.633179 29.402523,140.718124 
	C20.264666,156.137619 10.939003,171.445831 1.329360,186.890472 
	C1.000000,144.645767 1.000000,102.291542 1.000000,59.468658 
z"/>
<path fill="#FBFDFA" opacity="1.000000" stroke="none" 
	d="
M0.999999,224.468658 
	C1.556226,224.754959 2.350152,225.430389 2.633301,226.276718 
	C7.502407,240.830261 17.163136,250.884979 31.171137,256.916443 
	C32.070377,257.303619 32.895897,257.862030 33.877857,258.670410 
	C23.071266,259.000000 12.142533,259.000000 1.000000,259.000000 
	C1.000000,247.646667 1.000000,236.291992 0.999999,224.468658 
z"/>
<path fill="#D4E9CE" opacity="1.000000" stroke="none" 
	d="
M115.531342,1.000000 
	C116.000000,1.000000 116.018890,1.498206 115.541855,1.768243 
	C90.090225,2.103604 65.115639,2.168929 40.141052,2.234253 
	C40.108803,2.029543 40.076553,1.824833 40.022152,1.310061 
	C65.020897,1.000000 90.041786,1.000000 115.531342,1.000000 
z"/>
<path fill="#D4E9CE" opacity="1.000000" stroke="none" 
	d="
M189.531342,1.000000 
	C189.995239,1.184211 189.990479,1.368422 189.494843,1.808146 
	C169.017746,2.064349 149.031494,2.065038 129.045242,2.065728 
	C129.031143,1.888386 129.017044,1.711043 129.001465,1.266850 
	C149.020889,1.000000 169.041794,1.000000 189.531342,1.000000 
z"/>
<path fill="#D5E9CF" opacity="1.000000" stroke="none" 
	d="
M198.043152,2.071897 
	C198.029922,1.893490 198.016708,1.715083 198.001740,1.268338 
	C204.687637,1.000000 211.375290,1.000000 218.531464,1.000000 
	C218.992096,1.196229 218.984192,1.392458 218.480484,1.916732 
	C211.337509,2.187151 204.690323,2.129524 198.043152,2.071897 
z"/>
<path fill="#6EB65B" opacity="1.000000" stroke="none" 
	d="
M39.793720,2.379345 
	C65.115639,2.168929 90.090225,2.103604 115.533264,2.017377 
	C134.092545,16.296919 150.797409,31.989418 164.541855,50.617798 
	C165.495544,51.910404 166.696228,54.405712 166.148727,55.166847 
	C164.352158,57.664474 161.930954,61.346519 159.522049,61.526581 
	C118.974228,64.557465 85.213982,81.856956 56.363594,109.721352 
	C54.186607,111.823936 52.397232,112.512459 49.352512,111.609200 
	C46.584663,110.788071 43.246243,110.436989 40.542767,111.213547 
	C37.025669,112.223785 35.600117,111.170364 33.858967,108.336395 
	C20.993202,87.395592 10.702792,65.278778 3.227928,41.877594 
	C2.533203,39.702648 2.531543,36.906548 3.248358,34.743614 
	C9.094926,17.102112 21.520535,6.682178 39.793720,2.379345 
z"/>
<path fill="#6FB65C" opacity="1.000000" stroke="none" 
	d="
M132.786682,165.774841 
	C131.516525,167.764084 130.727203,169.760971 129.298111,171.046875 
	C127.933502,172.274734 125.807503,173.605957 124.181992,173.422516 
	C118.525673,172.784180 113.511292,173.833710 109.449707,177.817474 
	C107.457130,179.771851 105.937561,179.420120 103.819252,178.242157 
	C86.782547,168.768524 72.026520,156.458954 59.007996,142.053513 
	C58.029209,140.970459 57.972908,138.047775 58.709591,136.603424 
	C61.214874,131.691528 61.894787,126.747978 59.808475,121.716881 
	C58.659107,118.945198 59.107681,117.181091 61.190727,115.151634 
	C88.067902,88.966118 119.747086,72.916481 157.370163,69.281097 
	C160.080917,69.019165 161.940948,69.243469 162.976044,72.532425 
	C163.831314,75.249962 165.576721,78.258980 167.837143,79.832016 
	C171.452362,82.347839 171.106964,84.723030 169.852402,88.233727 
	C160.199295,115.246140 148.163162,141.103424 132.786682,165.774841 
z"/>
<path fill="#020202" opacity="1.000000" stroke="none" 
	d="
M714.109314,200.239273 
	C713.296387,204.991608 710.498901,205.685150 706.506287,205.588806 
	C695.923096,205.333511 696.119202,205.419739 691.933716,195.504135 
	C679.063354,165.013779 666.019775,134.596573 653.070251,104.139572 
	C652.447876,102.675659 652.080383,101.103340 651.583557,99.548203 
	C652.395264,99.341560 652.733032,99.140694 653.015320,99.200661 
	C658.893433,100.448967 666.286621,95.813110 670.582275,101.796051 
	C674.144958,106.758026 675.530273,113.274513 677.930176,119.081703 
	C686.647522,140.175674 695.384644,161.261505 704.122864,182.346848 
	C704.364319,182.929443 704.703430,183.471558 705.337524,184.683167 
	C709.893860,173.501770 713.545837,162.562149 718.750366,152.419159 
	C722.624207,144.869568 720.123352,139.007019 717.251892,132.446701 
	C712.614929,121.852898 708.338623,111.101204 703.536072,99.514008 
	C708.921631,99.514008 713.810181,99.306549 718.653137,99.683861 
	C719.657532,99.762100 720.802002,101.887886 721.355652,103.279373 
	C724.930298,112.263512 728.358948,121.305748 732.218018,131.321777 
	C736.168701,121.137634 739.876587,112.010742 743.194702,102.744286 
	C744.103821,100.205505 745.221558,99.346832 747.785339,99.453186 
	C751.906616,99.624153 756.040100,99.499054 760.899902,99.499054 
	C756.128662,111.175194 751.981812,122.509193 746.876770,133.393784 
	C743.547546,140.492081 742.960327,146.517685 746.689087,153.855316 
	C751.600708,163.520752 754.987061,173.961273 759.441589,185.099747 
	C763.735962,174.705109 767.637939,165.284729 771.520752,155.856491 
	C778.840393,138.083374 786.178650,120.317787 793.427002,102.515640 
	C794.404297,100.115211 795.518555,98.868423 798.441467,99.075134 
	C803.201416,99.411766 808.002563,99.165985 813.549561,99.165985 
	C810.797546,105.844124 808.356995,111.953392 805.774231,118.001984 
	C793.740295,146.184280 781.701233,174.364639 769.502869,202.475754 
	C768.917969,203.823761 766.847900,205.293304 765.392761,205.377197 
	C753.169312,206.081970 753.127197,206.003906 748.423767,194.842300 
	C743.160583,182.352142 737.972778,169.830200 732.213440,156.031281 
	C725.924377,171.380386 720.085693,185.630310 714.109314,200.239273 
z"/>
<path fill="#6DB55B" opacity="1.000000" stroke="none" 
	d="
M1426.443848,98.044174 
	C1445.025024,95.828758 1458.781616,103.554222 1470.628906,118.332092 
	C1470.628906,107.329758 1470.628784,97.615547 1470.628784,87.901337 
	C1470.628784,78.104279 1470.628906,68.307213 1470.628906,58.187748 
	C1477.174438,58.187748 1483.255859,58.187748 1489.997681,58.187748 
	C1489.997681,60.141594 1489.997559,62.078518 1489.997559,64.015442 
	C1489.997559,102.513145 1489.990234,141.010849 1490.009277,179.508545 
	C1490.011108,183.255432 1489.158813,187.416565 1494.304443,188.958450 
	C1494.858765,189.124527 1495.200195,190.584045 1495.318115,191.485687 
	C1495.489380,192.796951 1495.715576,194.266068 1495.306274,195.457504 
	C1494.031006,199.168503 1499.230469,205.842300 1490.356201,206.153320 
	C1480.238403,206.507919 1473.757690,202.290466 1473.059570,194.499435 
	C1472.911865,192.851364 1473.037964,191.178772 1473.037964,188.417542 
	C1471.363159,190.189758 1470.318237,191.270294 1469.300659,192.375992 
	C1450.425537,212.886551 1419.143433,212.424896 1399.417358,191.341522 
	C1379.289551,169.828613 1380.295654,130.983444 1401.517334,110.561478 
	C1408.409668,103.928909 1416.587891,99.801010 1426.443848,98.044174 
M1470.632568,141.919113 
	C1468.991333,137.852875 1468.114258,133.217865 1465.581665,129.815186 
	C1451.831665,111.340820 1428.456299,109.137230 1414.712036,125.462097 
	C1403.817383,138.402573 1401.621826,153.548325 1408.415405,169.298965 
	C1416.593262,188.259018 1438.576294,197.746353 1457.930908,184.476791 
	C1465.932373,178.990997 1471.575195,172.015594 1470.721069,161.309952 
	C1470.232666,155.187592 1470.632202,148.994400 1470.632568,141.919113 
z"/>
<path fill="#010101" opacity="1.000000" stroke="none" 
	d="
M1003.115723,183.801178 
	C989.605713,162.638779 991.821899,130.425400 1009.829407,111.905609 
	C1029.692383,91.477463 1060.010620,93.074478 1077.758057,115.380409 
	C1078.216187,115.956253 1078.706055,116.506912 1080.000488,118.039291 
	C1080.000488,107.095665 1080.000366,97.356796 1080.000366,87.617935 
	C1080.000366,77.827148 1080.000488,68.036354 1080.000488,58.071686 
	C1086.631592,58.071686 1092.866699,58.071686 1099.492065,58.071686 
	C1099.492065,60.096481 1099.492065,61.887623 1099.492065,63.678764 
	C1099.492065,102.498512 1099.489746,141.318253 1099.495605,180.138000 
	C1099.496216,184.178207 1099.048584,188.508179 1104.823853,189.012360 
	C1104.823853,194.516434 1104.823853,199.813858 1104.823853,205.060272 
	C1090.545654,209.074310 1083.267090,203.917068 1082.304565,189.949799 
	C1076.580444,194.158371 1071.091919,199.737671 1064.444092,202.801300 
	C1041.594116,213.331345 1018.360229,205.888184 1003.115723,183.801178 
M1017.669373,168.742935 
	C1023.466614,181.803940 1033.188110,189.790710 1047.693115,190.407516 
	C1060.030884,190.932175 1069.817139,185.328171 1076.640503,175.171265 
	C1078.546875,172.333542 1079.572632,168.522858 1079.860718,165.063416 
	C1080.370117,158.949905 1079.509644,152.714233 1080.116699,146.618744 
	C1081.078491,136.960663 1076.686157,130.067688 1070.018188,124.011070 
	C1052.510010,108.108147 1028.602051,112.884666 1018.540283,134.310699 
	C1013.341797,145.380707 1013.006165,156.654251 1017.669373,168.742935 
z"/>
<path fill="#030303" opacity="1.000000" stroke="none" 
	d="
M1125.163818,171.999908 
	C1125.170532,134.174835 1125.176880,96.849770 1125.191895,59.524704 
	C1125.192139,59.208614 1125.311890,58.892586 1125.451294,58.203751 
	C1131.583618,58.203751 1137.794189,58.203751 1144.457886,58.203751 
	C1144.457886,89.127419 1144.457886,120.041931 1144.457886,152.124603 
	C1146.418579,150.355392 1147.612671,149.374496 1148.697266,148.284576 
	C1163.738159,133.169571 1178.815674,118.090202 1193.741211,102.862045 
	C1196.144287,100.410294 1198.515747,99.216606 1201.988892,99.422005 
	C1206.911255,99.713097 1211.863647,99.495842 1217.518311,100.672211 
	C1203.836426,114.958069 1190.154541,129.243927 1176.252075,143.760086 
	C1190.715820,164.040329 1205.058716,184.151215 1220.276611,205.488983 
	C1212.771240,205.488983 1206.532349,205.627365 1200.311157,205.356781 
	C1199.237061,205.310074 1198.044434,203.665970 1197.234497,202.526550 
	C1186.058594,186.803513 1174.940186,171.039688 1163.563721,154.940689 
	C1157.604370,160.495514 1151.624512,165.875122 1145.934692,171.545898 
	C1144.864258,172.612778 1144.587158,174.836121 1144.564697,176.534042 
	C1144.438965,185.994308 1144.504272,195.457092 1144.504272,205.208466 
	C1137.997681,205.208466 1131.912842,205.208466 1125.163818,205.208466 
	C1125.163818,194.329117 1125.163818,183.414520 1125.163818,171.999908 
z"/>
<path fill="#70B65D" opacity="1.000000" stroke="none" 
	d="
M214.126953,73.836624 
	C227.656387,78.623238 240.781067,83.321678 253.921173,87.976509 
	C257.515289,89.249718 258.841919,91.468414 258.812805,95.476883 
	C258.618225,122.290695 258.638733,149.107025 258.794861,175.921326 
	C258.816864,179.704819 257.781921,181.604401 254.003128,182.634186 
	C246.797211,184.597900 239.710602,187.011765 232.614792,189.360580 
	C230.030182,190.216095 228.370270,189.837189 226.798630,187.344467 
	C225.512833,185.305115 223.654236,183.142288 221.533691,182.218735 
	C217.598236,180.504730 217.111130,177.809387 216.947311,173.992920 
	C215.580261,142.146347 207.680176,111.888687 193.465195,83.411392 
	C190.995956,78.464668 193.231934,75.328178 195.387466,72.255974 
	C196.303238,70.950760 200.088501,71.223587 202.488663,71.495148 
	C206.271042,71.923111 209.985046,72.955505 214.126953,73.836624 
z"/>
<path fill="#020202" opacity="1.000000" stroke="none" 
	d="
M889.045044,103.899017 
	C903.558228,113.101044 907.460815,126.965530 907.496033,142.631927 
	C907.524048,155.119888 907.496887,167.607971 907.504639,180.095993 
	C907.507202,184.201218 907.506042,188.327698 912.944092,189.042435 
	C912.944092,194.549362 912.944092,199.832092 912.944092,205.048523 
	C899.102112,208.922775 892.536255,204.649078 890.468567,190.135605 
	C880.243164,201.949814 867.097046,206.578079 852.189575,207.515427 
	C830.029480,208.908783 812.181580,190.703629 815.457703,169.487656 
	C817.441833,156.638702 826.064819,149.357605 837.590698,145.008728 
	C852.630798,139.333908 867.836914,140.235733 883.065613,144.246109 
	C884.481079,144.618881 885.873108,145.080475 887.296326,145.506897 
	C891.373535,124.709167 879.208252,109.709579 856.964233,112.349136 
	C846.335510,113.610382 837.143188,118.437141 827.861511,124.573761 
	C825.638977,120.160545 823.522705,115.958389 821.312439,111.569466 
	C842.778259,98.235626 864.700989,92.009789 889.045044,103.899017 
M874.114563,154.323578 
	C863.497803,152.835297 853.051514,152.508911 843.184387,157.886658 
	C837.176697,161.160965 833.388977,165.744812 833.508545,172.830399 
	C833.636719,180.417328 837.050842,186.245377 843.814209,189.678787 
	C855.414246,195.567520 872.810852,192.412735 882.311951,182.521484 
	C884.806641,179.924332 887.160950,176.443115 887.832520,173.024628 
	C888.770813,168.248459 888.069031,163.150101 888.069031,157.840225 
	C883.619690,156.699295 879.295959,155.590546 874.114563,154.323578 
z"/>
<path fill="#010101" opacity="1.000000" stroke="none" 
	d="
M484.522644,193.519867 
	C462.781250,171.645401 461.839478,137.406311 482.097626,114.363129 
	C497.585480,96.745964 527.694031,92.543503 547.732117,104.670883 
	C577.979980,122.977455 583.169678,163.968628 560.831177,190.135101 
	C544.375671,209.410431 510.550049,213.331650 490.266602,198.037689 
	C488.416962,196.643051 486.606262,195.196762 484.522644,193.519867 
M548.521179,174.980347 
	C555.590271,163.334290 557.043579,150.948944 552.306030,138.248962 
	C547.692932,125.882553 539.354614,117.254616 525.675110,114.984978 
	C510.532684,112.472610 496.735199,122.366661 490.615723,136.123322 
	C483.140930,152.926636 488.270081,174.961502 503.238007,185.117905 
	C516.584595,194.174149 536.147400,192.661896 548.521179,174.980347 
z"/>
<path fill="#70B65D" opacity="1.000000" stroke="none" 
	d="
M176.652328,91.606033 
	C178.233856,88.536400 177.339615,83.974945 182.034943,83.879555 
	C183.607101,83.847610 186.065781,84.768478 186.666656,85.976402 
	C196.642899,106.031387 203.746231,127.064178 207.036896,149.267471 
	C208.302582,157.807571 208.983475,166.433350 210.003845,175.011398 
	C210.343567,177.867279 209.532700,179.665802 206.601898,180.695404 
	C201.004791,182.661713 197.464890,186.870148 196.169983,192.514664 
	C195.441116,195.691696 193.745926,196.512421 191.010254,196.639084 
	C174.320496,197.411789 157.758270,196.580200 141.467453,192.578506 
	C140.322876,192.297363 138.792694,191.557465 138.394775,190.624451 
	C136.856995,187.018723 135.523071,183.296448 134.520920,179.509705 
	C134.216736,178.360306 134.946838,176.682480 135.676086,175.551636 
	C152.600998,149.306442 166.063217,121.376450 176.652328,91.606033 
z"/>
<path fill="#300C36" opacity="1.000000" stroke="none" 
	d="
M1348.150513,140.167633 
	C1347.543945,132.008240 1346.731201,124.355736 1340.264526,118.963737 
	C1333.574829,113.385963 1321.968384,113.766953 1312.240723,120.052467 
	C1300.999390,127.316116 1294.034668,136.693604 1294.667358,151.209839 
	C1295.442627,168.998474 1294.852173,186.846664 1294.852173,205.102707 
	C1288.428223,205.102707 1282.232666,205.102707 1275.745117,205.102707 
	C1275.745117,169.946747 1275.745117,134.861923 1275.745117,99.462120 
	C1281.342163,99.462120 1286.908447,99.462120 1292.968506,99.462120 
	C1292.968506,105.617218 1292.968506,111.820061 1292.968506,117.922989 
	C1298.545898,113.383545 1303.494995,108.453850 1309.271484,104.850906 
	C1319.736694,98.323471 1331.459595,95.998482 1343.615479,98.451836 
	C1357.295044,101.212631 1363.370605,111.290016 1366.026855,123.955093 
	C1366.875854,128.003021 1367.511353,132.179916 1367.537231,136.302277 
	C1367.680664,159.115829 1367.606079,181.930771 1367.606079,205.141266 
	C1361.516235,205.141266 1355.424805,205.141266 1348.153564,205.141266 
	C1348.153564,183.770935 1348.153564,162.208725 1348.150513,140.167633 
z"/>
<path fill="#70B65D" opacity="1.000000" stroke="none" 
	d="
M197.869537,2.434148 
	C204.690323,2.129524 211.337509,2.187151 218.444214,2.209073 
	C235.345490,5.871821 247.727020,14.766801 254.624298,30.450359 
	C256.015350,33.613434 257.473907,37.071968 257.557404,40.427734 
	C257.891266,53.841232 257.695221,67.267914 257.695221,81.244629 
	C252.323166,79.048172 246.875793,76.272743 241.111221,74.573158 
	C227.259537,70.489204 213.239029,66.980537 199.343002,63.040913 
	C197.526840,62.526016 195.951141,60.949043 194.443237,59.655201 
	C193.737869,59.049980 193.679672,57.642624 192.953201,57.117466 
	C187.072632,52.866356 189.289642,47.555264 190.424194,42.026237 
	C193.097061,29.000711 195.301788,15.879126 197.869537,2.434148 
z"/>
<path fill="#030303" opacity="1.000000" stroke="none" 
	d="
M951.507202,162.000336 
	C951.507202,176.624039 951.507202,190.747742 951.507202,205.187653 
	C945.056091,205.187653 938.975403,205.187653 932.526001,205.187653 
	C932.526001,170.116135 932.526001,134.949829 932.526001,99.472122 
	C938.332397,99.472122 944.079468,99.472122 950.492798,99.472122 
	C950.492798,105.948769 950.492798,112.465569 950.492798,119.723007 
	C965.100281,102.648758 976.914124,96.445587 988.977661,99.199188 
	C988.977661,104.780373 988.977661,110.393822 988.977661,115.108795 
	C981.684326,117.506195 974.486633,119.017166 968.095581,122.165588 
	C957.478149,127.396057 950.624695,135.644608 951.462830,148.514481 
	C951.743591,152.825775 951.507263,157.170761 951.507202,162.000336 
z"/>
<path fill="#040404" opacity="1.000000" stroke="none" 
	d="
M452.173553,132.044937 
	C452.173553,135.484711 452.173553,138.438461 452.173553,141.858521 
	C430.686157,141.858521 409.633514,141.858521 388.161621,141.858521 
	C388.161621,163.232788 388.161621,184.139801 388.161621,205.254837 
	C381.491394,205.254837 375.248657,205.254837 368.749451,205.254837 
	C368.749451,178.601761 368.749451,152.200470 368.749451,125.479889 
	C396.319946,125.479889 423.860321,125.479889 452.173553,125.479889 
	C452.173553,127.420143 452.173553,129.489517 452.173553,132.044937 
z"/>
<path fill="#020202" opacity="1.000000" stroke="none" 
	d="
M592.831177,106.079254 
	C592.831177,103.621193 592.831177,101.653290 592.831177,99.427254 
	C598.778076,99.427254 604.378845,99.427254 610.517761,99.427254 
	C610.517761,106.075996 610.517761,112.811211 610.517761,120.852562 
	C620.587036,106.727303 632.037354,97.502823 649.556580,98.753387 
	C649.556580,104.700684 649.556580,110.285614 649.556580,115.141373 
	C642.262085,117.458260 634.809265,118.830757 628.321960,122.112114 
	C617.810913,127.428749 611.491028,135.784042 611.862061,148.663971 
	C612.402771,167.434250 612.000977,186.231689 612.000977,205.255524 
	C605.589905,205.255524 599.509460,205.255524 592.831177,205.255524 
	C592.831177,172.379745 592.831177,139.474579 592.831177,106.079254 
z"/>
<path fill="#010101" opacity="1.000000" stroke="none" 
	d="
M422.000092,61.834396 
	C436.153595,61.834396 449.807098,61.834396 463.812897,61.834396 
	C463.812897,67.511307 463.812897,73.060966 463.812897,79.136475 
	C438.820038,79.136475 413.767334,79.136475 388.235901,79.136475 
	C388.235901,89.217674 388.235901,98.791908 388.235901,108.558380 
	C381.515381,108.558380 375.281189,108.558380 368.779144,108.558380 
	C368.779144,93.011177 368.779144,77.731987 368.779144,61.834400 
	C386.287659,61.834400 403.893860,61.834400 422.000092,61.834396 
z"/>
<path fill="#140B1D" opacity="1.000000" stroke="none" 
	d="
M1231.141602,180.999939 
	C1231.141602,153.577454 1231.141602,126.654968 1231.141602,99.438492 
	C1237.686523,99.438492 1243.765747,99.438492 1250.195557,99.438492 
	C1250.195557,134.643723 1250.195557,169.826630 1250.195557,205.275909 
	C1243.937744,205.275909 1237.854492,205.275909 1231.141602,205.275909 
	C1231.141602,197.330093 1231.141602,189.415024 1231.141602,180.999939 
z"/>
<path fill="#70B75E" opacity="1.000000" stroke="none" 
	d="
M129.123566,2.389673 
	C149.031494,2.065038 169.017746,2.064349 189.467072,2.083155 
	C187.289902,16.937029 184.706482,31.782148 181.907440,46.586506 
	C181.669495,47.845024 179.921478,49.818264 178.998413,49.751553 
	C176.629944,49.580372 173.569321,49.145531 172.133835,47.579807 
	C165.302353,40.128609 159.255920,31.945335 152.286652,24.636126 
	C144.972687,16.965399 136.927505,9.991850 129.123566,2.389673 
z"/>
<path fill="#120A1C" opacity="1.000000" stroke="none" 
	d="
M1250.535156,62.259510 
	C1250.535156,68.703636 1250.535156,74.675209 1250.535156,80.915077 
	C1244.072998,80.915077 1237.976929,80.915077 1231.511475,80.915077 
	C1231.511475,73.466240 1231.511475,65.926147 1231.511475,57.819118 
	C1237.101685,57.819118 1242.713013,57.657970 1248.294189,57.995922 
	C1249.114746,58.045601 1249.791748,60.464352 1250.535156,62.259510 
z"/>
<path fill="#FDFEFD" opacity="1.000000" stroke="none" 
	d="
M1470.632324,142.376099 
	C1470.632202,148.994400 1470.232666,155.187592 1470.721069,161.309952 
	C1471.575195,172.015594 1465.932373,178.990997 1457.930908,184.476791 
	C1438.576294,197.746353 1416.593262,188.259018 1408.415405,169.298965 
	C1401.621826,153.548325 1403.817383,138.402573 1414.712036,125.462097 
	C1428.456299,109.137230 1451.831665,111.340820 1465.581665,129.815186 
	C1468.114258,133.217865 1468.991333,137.852875 1470.632324,142.376099 
z"/>
<path fill="#FCFCFC" opacity="1.000000" stroke="none" 
	d="
M1017.450684,168.419891 
	C1013.006165,156.654251 1013.341797,145.380707 1018.540283,134.310699 
	C1028.602051,112.884666 1052.510010,108.108147 1070.018188,124.011070 
	C1076.686157,130.067688 1081.078491,136.960663 1080.116699,146.618744 
	C1079.509644,152.714233 1080.370117,158.949905 1079.860718,165.063416 
	C1079.572632,168.522858 1078.546875,172.333542 1076.640503,175.171265 
	C1069.817139,185.328171 1060.030884,190.932175 1047.693115,190.407516 
	C1033.188110,189.790710 1023.466614,181.803940 1017.450684,168.419891 
z"/>
<path fill="#FAFAFA" opacity="1.000000" stroke="none" 
	d="
M874.543335,154.402679 
	C879.295959,155.590546 883.619690,156.699295 888.069031,157.840225 
	C888.069031,163.150101 888.770813,168.248459 887.832520,173.024628 
	C887.160950,176.443115 884.806641,179.924332 882.311951,182.521484 
	C872.810852,192.412735 855.414246,195.567520 843.814209,189.678787 
	C837.050842,186.245377 833.636719,180.417328 833.508545,172.830399 
	C833.388977,165.744812 837.176697,161.160965 843.184387,157.886658 
	C853.051514,152.508911 863.497803,152.835297 874.543335,154.402679 
z"/>
<path fill="#FCFCFC" opacity="1.000000" stroke="none" 
	d="
M548.325562,175.286743 
	C536.147400,192.661896 516.584595,194.174149 503.238007,185.117905 
	C488.270081,174.961502 483.140930,152.926636 490.615723,136.123322 
	C496.735199,122.366661 510.532684,112.472610 525.675110,114.984978 
	C539.354614,117.254616 547.692932,125.882553 552.306030,138.248962 
	C557.043579,150.948944 555.590271,163.334290 548.325562,175.286743 
z"/>
</svg>